<svg width="150" height="35" viewBox="0 0 150 35" fill="none" xmlns="http://www.w3.org/2000/svg">
<path d="M50.8873 19.0482C50.8873 19.7773 50.794 20.3242 50.7006 20.6888H36.1417C36.4217 21.6914 36.9816 22.6029 37.8216 23.1497C38.6615 23.7878 39.5948 24.0612 40.7147 24.0612C42.5812 24.0612 43.8878 23.5143 44.7277 22.3294H50.6073C49.8607 24.2435 48.6474 25.793 46.8742 26.8867C45.101 28.0716 43.0479 28.6185 40.7147 28.6185C37.7283 28.6185 35.3018 27.707 33.3419 25.793C31.3821 23.9701 30.3555 21.6003 30.3555 18.8659C30.3555 16.1315 31.2887 13.7617 33.2486 11.9388C35.2084 10.1159 37.6349 9.11328 40.6214 9.11328C43.5145 9.11328 45.941 10.0247 47.9942 11.9388C49.954 13.8529 50.8873 16.2227 50.8873 19.0482ZM40.6214 13.7617C39.5948 13.7617 38.6615 14.0352 37.8216 14.6732C37.075 15.3112 36.515 16.0404 36.1417 17.1341H45.0077C44.7277 16.1315 44.1678 15.3112 43.4212 14.6732C42.5812 14.0352 41.648 13.7617 40.6214 13.7617Z" fill="#53182E"/>
<path d="M64.1395 14.4889H60.0332V21.3249C60.0332 21.9629 60.2198 22.5098 60.5931 22.8744C60.9664 23.2389 61.5264 23.4212 62.273 23.4212H64.1395V28.252H61.4331C56.8601 28.252 54.5269 26.2468 54.5269 22.1452V14.3978H51.6338V9.65821H53.2203C54.0603 9.65821 54.8069 8.92904 54.8069 8.10873V4.73633H59.9398V9.65821H64.0462V14.4889H64.1395Z" fill="#53182E"/>
<path d="M74.0318 28.709C71.792 28.709 69.9254 28.1621 68.4322 26.9772C66.939 25.7923 66.1924 24.334 66.1924 22.6934H71.6986C71.6986 23.2402 71.8853 23.6048 72.3519 23.9694C72.8186 24.334 73.3785 24.5163 74.0318 24.5163C74.5918 24.5163 75.0584 24.4251 75.525 24.1517C75.9917 23.8783 76.1783 23.5137 76.1783 23.0579C76.1783 22.1465 75.0584 21.5085 72.7252 21.0527C68.5255 20.2324 66.4724 18.2272 66.4724 15.2194C66.4724 13.3965 67.219 11.9382 68.6189 10.8444C70.0188 9.75066 71.792 9.29492 73.8451 9.29492C75.9917 9.29492 77.7649 9.8418 79.2581 11.0267C80.658 12.1204 81.4046 13.5788 81.4046 15.1283H75.8983C75.8983 14.6725 75.7117 14.3079 75.3384 14.0345C74.9651 13.7611 74.4984 13.5788 73.8451 13.5788C73.2852 13.5788 72.9119 13.6699 72.5386 13.9434C72.1653 14.2168 71.9786 14.4902 71.9786 14.946C71.9786 15.7663 73.1919 16.4043 75.525 16.9512C79.6314 17.8626 81.6846 19.7767 81.6846 22.6934C81.6846 24.6074 80.938 26.0658 79.5381 27.1595C77.9515 28.1621 76.1783 28.709 74.0318 28.709Z" fill="#53182E"/>
<path d="M127.042 23.057H127.415V28.1612H125.922C123.215 28.1612 121.442 27.2497 120.602 25.4268C119.015 27.5232 116.962 28.5258 114.349 28.5258C111.736 28.5258 109.589 27.6143 107.816 25.7003C106.043 23.8773 105.203 21.5076 105.203 18.7732C105.203 16.0388 106.043 13.669 107.816 11.8461C109.589 10.0232 111.736 9.02057 114.349 9.02057C116.682 9.02057 118.549 9.84088 120.135 11.4815V9.65859H125.642V21.5987C125.548 22.419 126.202 23.057 127.042 23.057ZM115.376 23.5128C116.682 23.5128 117.802 23.057 118.735 22.2367C119.575 21.3253 120.042 20.2315 120.042 18.9555C120.042 17.6794 119.575 16.5857 118.735 15.6742C117.896 14.7628 116.776 14.3982 115.376 14.3982C114.069 14.3982 112.949 14.8539 112.109 15.6742C111.269 16.5857 110.803 17.6794 110.803 18.9555C110.803 20.2315 111.269 21.3253 112.109 22.2367C112.949 23.057 114.069 23.5128 115.376 23.5128Z" fill="#53182E"/>
<path d="M149.626 23.0592H150V28.1634H148.506C144.587 28.1634 142.627 26.3405 142.627 22.6947V17.9551C142.627 16.8613 142.253 15.9499 141.6 15.2207C140.947 14.5827 140.014 14.2181 138.987 14.2181C137.774 14.2181 136.841 14.5827 136.094 15.2207C135.347 15.9499 134.974 16.8613 134.974 17.9551V28.0723H129.468V9.66081H134.974V11.666C136.467 10.0254 138.334 9.20508 140.76 9.20508C142.907 9.20508 144.68 9.8431 146.08 11.1191C147.386 12.3952 148.04 14.127 148.04 16.2233V21.6009C148.133 22.4212 148.786 23.0592 149.626 23.0592Z" fill="#53182E"/>
<path d="M24.57 9.56818C22.6102 7.92756 20.277 7.28954 17.6639 7.65412C17.0106 7.74527 15.704 7.92756 14.2108 8.10985C9.91777 8.74787 6.93133 12.576 7.49128 16.7687L9.63779 33.2661L15.0507 32.5369L14.1175 25.2453C15.8907 26.7036 17.8505 27.3416 20.1837 27.0682C22.7968 26.7036 24.85 25.5187 26.3432 23.5135C27.8364 21.4171 28.3964 19.0474 28.0231 16.313C27.7431 13.3963 26.6232 11.2088 24.57 9.56818ZM21.6769 20.3234C20.9303 21.326 19.9037 21.8729 18.5038 22.0552C17.1972 22.2375 15.984 21.964 15.0507 21.1437C14.0241 20.4145 13.4642 19.3208 13.2775 18.0447C13.0909 16.7687 13.3708 15.5838 14.1175 14.5812C14.8641 13.5786 15.8907 13.0317 17.2906 12.8494C18.5971 12.6671 19.8104 12.9406 20.7436 13.7609C21.7702 14.4901 22.3302 15.5838 22.5168 16.8599C22.7035 18.227 22.4235 19.3208 21.6769 20.3234Z" fill="#53182E"/>
<path d="M11.8771 3.64369C7.58405 -0.457879 -2.30855 4.19056 0.491243 9.0213C1.23785 10.2973 4.13097 13.9432 5.81085 11.7557C11.5971 4.19056 9.91721 7.10723 13.6503 11.0265C16.0768 13.5786 13.3703 5.01087 11.8771 3.64369Z" fill="#53182E"/>
<path d="M19.9963 2.36778C23.5427 -2.37181 34.0886 0.636008 32.1287 5.83132C31.5687 7.19851 29.3289 11.3001 27.369 9.38601C20.3696 2.91465 22.5161 5.46674 19.5296 9.93289C17.5698 12.9407 18.783 4.0084 19.9963 2.36778Z" fill="#53182E"/>
<path d="M94.6566 9.20508C97.2698 9.20508 99.4163 10.1165 101.189 11.9395C102.963 13.7624 103.803 16.041 103.803 18.8665C103.803 21.6009 102.963 23.8796 101.189 25.7936C99.4163 27.6165 97.2698 28.528 94.6566 28.528C92.3235 28.528 90.4569 27.7077 88.9637 26.0671V34.9994H83.5508V9.56966H88.9637V11.666C90.4569 10.0254 92.4168 9.20508 94.6566 9.20508ZM90.2703 22.0566C91.1102 22.9681 92.2301 23.3327 93.63 23.3327C94.9366 23.3327 96.0565 22.877 96.9898 22.0566C97.8297 21.1452 98.2964 20.1426 98.2964 18.7754C98.2964 17.4994 97.8297 16.4056 96.9898 15.4941C96.1499 14.5827 95.0299 14.2181 93.63 14.2181C92.3235 14.2181 91.2035 14.6738 90.2703 15.4941C89.4303 16.4056 88.9637 17.4082 88.9637 18.7754C88.9637 20.1426 89.4303 21.2363 90.2703 22.0566Z" fill="#53182E"/>
</svg>
