<svg xmlns="http://www.w3.org/2000/svg" xmlns:xlink="http://www.w3.org/1999/xlink" viewBox="0 0 1377 414" width="1377" height="414" preserveAspectRatio="xMidYMid meet" style="width: 100%; height: 100%; transform: translate3d(0px, 0px, 0px); content-visibility: visible;"><defs><clipPath id="__lottie_element_143"><rect width="1377" height="414" x="0" y="0"></rect></clipPath><clipPath id="__lottie_element_163"><path d="M0,0 L350,0 L350,350 L0,350z"></path></clipPath></defs><g clip-path="url(#__lottie_element_143)"><g transform="matrix(1,0,0,1,387.8030090332031,218.94500732421875)" opacity="1" style="display: block;"><g opacity="1" transform="matrix(1,0,0,1,0,0)"><path fill="rgb(83,24,46)" fill-opacity="1" d=" M-24.48900032043457,-36.65700149536133 C-17.142000198364258,-42.23500061035156 -8.979000091552734,-44.625999450683594 0,-44.625999450683594 C8.979000091552734,-44.625999450683594 17.142000198364258,-42.23500061035156 24.48900032043457,-36.65700149536133 C31.018999099731445,-31.07900047302246 35.91699981689453,-23.906999588012695 38.36600112915039,-15.140999794006348 C38.36600112915039,-15.140999794006348 -39.18199920654297,-15.140999794006348 -39.18199920654297,-15.140999794006348 C-35.91699981689453,-24.70400047302246 -31.018999099731445,-31.07900047302246 -24.48900032043457,-36.65700149536133z M88.16000366210938,15.937999725341797 C88.97599792480469,12.75 89.79299926757812,7.968999862670898 89.79299926757812,1.593999981880188 C89.79299926757812,-23.110000610351562 81.62999725341797,-43.82899856567383 64.48799896240234,-60.56399917602539 C46.52899932861328,-77.29900360107422 25.30500030517578,-85.26699829101562 0,-85.26699829101562 C-26.121999740600586,-85.26699829101562 -47.34600067138672,-76.50199890136719 -64.48799896240234,-60.56399917602539 C-81.62999725341797,-44.625999450683594 -89.79299926757812,-23.906999588012695 -89.79299926757812,0 C-89.79299926757812,23.906999588012695 -80.81300354003906,44.625999450683594 -63.67100143432617,60.56399917602539 C-46.52899932861328,77.29900360107422 -25.305999755859375,85.26699829101562 0.8159999847412109,85.26699829101562 C21.222999572753906,85.26699829101562 39.18199920654297,80.48600006103516 54.69200134277344,70.1259994506836 C70.2020034790039,60.5629997253418 80.81400299072266,47.016998291015625 87.34400177001953,30.281999588012695 C87.34400177001953,30.281999588012695 35.91699981689453,30.281999588012695 35.91699981689453,30.281999588012695 C28.56999969482422,40.641998291015625 17.142000198364258,45.42300033569336 0.8159999847412109,45.42300033569336 C-8.979999542236328,45.42300033569336 -17.142000198364258,43.03200149536133 -24.48900032043457,37.45399856567383 C-31.836000442504883,32.67300033569336 -36.733001708984375,24.70400047302246 -39.18199920654297,15.937999725341797 C-39.18199920654297,15.937999725341797 88.16000366210938,15.937999725341797 88.16000366210938,15.937999725341797z"></path></g></g><g transform="matrix(1,0,0,1,538.8170166015625,198.20799255371094)" opacity="1" style="display: block;"><g opacity="1" transform="matrix(1,0,0,1,0,0)"><path fill="rgb(83,24,46)" fill-opacity="1" d=" M18.774999618530273,-17.531999588012695 C18.774999618530273,-17.531999588012695 54.69200134277344,-17.531999588012695 54.69200134277344,-17.531999588012695 C54.69200134277344,-17.531999588012695 53.875999450683594,-17.531999588012695 53.875999450683594,-17.531999588012695 C53.875999450683594,-17.531999588012695 53.875999450683594,-59.766998291015625 53.875999450683594,-59.766998291015625 C53.875999450683594,-59.766998291015625 17.958999633789062,-59.766998291015625 17.958999633789062,-59.766998291015625 C17.958999633789062,-59.766998291015625 17.958999633789062,-102.79900360107422 17.958999633789062,-102.79900360107422 C17.958999633789062,-102.79900360107422 -26.937999725341797,-102.79900360107422 -26.937999725341797,-102.79900360107422 C-26.937999725341797,-102.79900360107422 -26.937999725341797,-73.31400299072266 -26.937999725341797,-73.31400299072266 C-26.937999725341797,-66.14199829101562 -33.46799850463867,-59.766998291015625 -40.814998626708984,-59.766998291015625 C-40.814998626708984,-59.766998291015625 -54.69200134277344,-59.766998291015625 -54.69200134277344,-59.766998291015625 C-54.69200134277344,-59.766998291015625 -54.69200134277344,-18.327999114990234 -54.69200134277344,-18.327999114990234 C-54.69200134277344,-18.327999114990234 -29.386999130249023,-18.327999114990234 -29.386999130249023,-18.327999114990234 C-29.386999130249023,-18.327999114990234 -29.386999130249023,49.40700149536133 -29.386999130249023,49.40700149536133 C-29.386999130249023,85.26699829101562 -8.979999542236328,102.79900360107422 31.018999099731445,102.79900360107422 C31.018999099731445,102.79900360107422 54.69200134277344,102.79900360107422 54.69200134277344,102.79900360107422 C54.69200134277344,102.79900360107422 54.69200134277344,60.56399917602539 54.69200134277344,60.56399917602539 C54.69200134277344,60.56399917602539 38.36600112915039,60.56399917602539 38.36600112915039,60.56399917602539 C31.836000442504883,60.56399917602539 26.937999725341797,58.970001220703125 23.67300033569336,55.78200149536133 C20.408000946044922,52.59400177001953 18.774999618530273,47.8129997253418 18.774999618530273,42.23500061035156 C18.774999618530273,42.23500061035156 18.774999618530273,-17.531999588012695 18.774999618530273,-17.531999588012695z"></path></g></g><g transform="matrix(1,0,0,1,679.218017578125,220.13400268554688)" opacity="1" style="display: block;"><g opacity="1" transform="matrix(1,0,0,1,0,0)"><path fill="rgb(83,24,46)" fill-opacity="1" d=" M-48.1619987487793,69.72799682617188 C-35.10100173950195,80.08799743652344 -18.774999618530273,84.86900329589844 0.8159999847412109,84.86900329589844 C19.590999603271484,84.86900329589844 35.10100173950195,80.08799743652344 48.97800064086914,71.3219985961914 C61.22200012207031,61.75899887084961 67.75299835205078,49.00899887084961 67.75299835205078,32.27399826049805 C67.75299835205078,6.77400016784668 49.79399871826172,-9.961000442504883 13.876999855041504,-17.93000030517578 C-6.53000020980835,-22.711000442504883 -17.142000198364258,-28.290000915527344 -17.142000198364258,-35.46200180053711 C-17.142000198364258,-39.44599914550781 -15.508999824523926,-41.83599853515625 -12.244000434875488,-44.22700119018555 C-8.979000091552734,-46.61800003051758 -5.714000225067139,-47.415000915527344 -0.8159999847412109,-47.415000915527344 C4.8979997634887695,-47.415000915527344 8.979000091552734,-45.82099914550781 12.244000434875488,-43.43000030517578 C15.508999824523926,-41.03900146484375 17.142000198364258,-37.85200119018555 17.142000198364258,-33.86800003051758 C17.142000198364258,-33.86800003051758 65.30400085449219,-33.86800003051758 65.30400085449219,-33.86800003051758 C65.30400085449219,-47.415000915527344 58.77299880981445,-60.165000915527344 46.52899932861328,-69.72799682617188 C33.46799850463867,-80.08799743652344 17.958999633789062,-84.86900329589844 -0.8159999847412109,-84.86900329589844 C-18.774999618530273,-84.86900329589844 -34.28499984741211,-80.88500213623047 -46.52899932861328,-71.3219985961914 C-58.77299880981445,-61.75899887084961 -65.30400085449219,-49.00899887084961 -65.30400085449219,-33.07099914550781 C-65.30400085449219,-6.77400016784668 -47.345001220703125,10.758000373840332 -10.612000465393066,17.93000030517578 C9.795000076293945,21.913999557495117 19.590999603271484,27.493000030517578 19.590999603271484,35.46200180053711 C19.590999603271484,39.44599914550781 17.95800018310547,42.632999420166016 13.876999855041504,45.02399826049805 C9.795999526977539,47.415000915527344 5.714000225067139,48.21200180053711 0.8159999847412109,48.21200180053711 C-4.8979997634887695,48.21200180053711 -9.795999526977539,46.61800003051758 -13.876999855041504,43.43000030517578 C-17.95800018310547,40.242000579833984 -19.590999603271484,37.05500030517578 -19.590999603271484,32.27399826049805 C-19.590999603271484,32.27399826049805 -67.75299835205078,32.27399826049805 -67.75299835205078,32.27399826049805 C-67.75299835205078,46.61800003051758 -61.222999572753906,59.36800003051758 -48.1619987487793,69.72799682617188z"></path></g></g><g transform="matrix(1,0,0,1,1049.8189697265625,218.13400268554688)" opacity="1" style="display: block;"><g opacity="1" transform="matrix(1,0,0,1,0,0)"><path fill="rgb(83,24,46)" fill-opacity="1" d=" M21.224000930786133,30.281999588012695 C13.060999870300293,37.45399856567383 3.265000104904175,41.4379997253418 -8.163000106811523,41.4379997253418 C-19.590999603271484,41.4379997253418 -29.38599967956543,37.45399856567383 -36.733001708984375,30.281999588012695 C-44.08000183105469,22.312999725341797 -48.1619987487793,12.75 -48.1619987487793,1.593999981880188 C-48.1619987487793,-9.562000274658203 -44.08000183105469,-19.125 -36.733001708984375,-27.0939998626709 C-29.38599967956543,-34.26599884033203 -19.590999603271484,-38.250999450683594 -8.163000106811523,-38.250999450683594 C4.080999851226807,-38.250999450683594 13.876999855041504,-35.0629997253418 21.224000930786133,-27.0939998626709 C28.570999145507812,-19.125 32.652000427246094,-9.562000274658203 32.652000427246094,1.593999981880188 C32.652000427246094,12.75 28.570999145507812,22.312999725341797 21.224000930786133,30.281999588012695z M97.13899993896484,37.45399856567383 C97.13899993896484,37.45399856567383 93.8740005493164,37.45399856567383 93.8740005493164,37.45399856567383 C86.5270004272461,37.45399856567383 80.81400299072266,31.875999450683594 81.62999725341797,24.70400047302246 C81.62999725341797,24.70400047302246 81.62999725341797,-79.68900299072266 81.62999725341797,-79.68900299072266 C81.62999725341797,-79.68900299072266 33.46799850463867,-79.68900299072266 33.46799850463867,-79.68900299072266 C33.46799850463867,-79.68900299072266 33.46799850463867,-63.750999450683594 33.46799850463867,-63.750999450683594 C19.590999603271484,-78.09500122070312 3.265000104904175,-85.26699829101562 -17.142000198364258,-85.26699829101562 C-39.99800109863281,-85.26699829101562 -58.77299880981445,-76.50199890136719 -74.28299713134766,-60.56399917602539 C-89.79299926757812,-44.625999450683594 -97.13899993896484,-23.906999588012695 -97.13899993896484,0 C-97.13899993896484,23.906999588012695 -89.79299926757812,44.625999450683594 -74.28299713134766,60.56399917602539 C-58.77299880981445,77.29900360107422 -39.99800109863281,85.26699829101562 -17.142000198364258,85.26699829101562 C5.714000225067139,85.26699829101562 23.67300033569336,76.5009994506836 37.54999923706055,58.17300033569336 C44.89699935913086,74.11100006103516 60.40599822998047,82.08000183105469 84.0790023803711,82.08000183105469 C84.0790023803711,82.08000183105469 97.13899993896484,82.08000183105469 97.13899993896484,82.08000183105469 C97.13899993896484,82.08000183105469 97.13899993896484,37.45399856567383 97.13899993896484,37.45399856567383z"></path></g></g><g transform="matrix(1,0,0,1,1254.70703125,217.35699462890625)" opacity="1" style="display: block;"><g opacity="1" transform="matrix(1,0,0,1,0,0)"><path fill="rgb(83,24,46)" fill-opacity="1" d=" M89.79299926757812,38.250999450683594 C89.79299926757812,38.250999450683594 86.52799987792969,38.250999450683594 86.52799987792969,38.250999450683594 C79.18099975585938,38.250999450683594 73.46700286865234,32.672000885009766 72.6510009765625,25.5 C72.6510009765625,25.5 72.6510009765625,-21.516000747680664 72.6510009765625,-21.516000747680664 C72.6510009765625,-39.84400177001953 66.93599700927734,-54.986000061035156 55.507999420166016,-66.14199829101562 C43.263999938964844,-77.2979965209961 27.753999710083008,-82.87699890136719 8.979000091552734,-82.87699890136719 C-12.244999885559082,-82.87699890136719 -28.56999969482422,-75.70500183105469 -41.63100051879883,-61.361000061035156 C-41.63100051879883,-61.361000061035156 -41.63100051879883,-78.89199829101562 -41.63100051879883,-78.89199829101562 C-41.63100051879883,-78.89199829101562 -89.79299926757812,-78.89199829101562 -89.79299926757812,-78.89199829101562 C-89.79299926757812,-78.89199829101562 -89.79299926757812,82.08000183105469 -89.79299926757812,82.08000183105469 C-89.79299926757812,82.08000183105469 -41.63100051879883,82.08000183105469 -41.63100051879883,82.08000183105469 C-41.63100051879883,82.08000183105469 -41.63100051879883,-6.375 -41.63100051879883,-6.375 C-41.63100051879883,-15.937999725341797 -38.36600112915039,-23.906999588012695 -31.836000442504883,-30.281999588012695 C-25.305999755859375,-35.86000061035156 -17.142000198364258,-39.04800033569336 -6.53000020980835,-39.04800033569336 C2.4489998817443848,-39.04800033569336 10.612000465393066,-35.86000061035156 16.326000213623047,-30.281999588012695 C22.040000915527344,-23.906999588012695 25.30500030517578,-15.937999725341797 25.30500030517578,-6.375 C25.30500030517578,-6.375 25.30500030517578,35.0629997253418 25.30500030517578,35.0629997253418 C25.30500030517578,66.93900299072266 42.448001861572266,82.87699890136719 76.73200225830078,82.87699890136719 C76.73200225830078,82.87699890136719 89.79299926757812,82.87699890136719 89.79299926757812,82.87699890136719 C89.79299926757812,82.87699890136719 89.79299926757812,38.250999450683594 89.79299926757812,38.250999450683594z"></path></g></g><g transform="matrix(1,0,0,1,851.8610229492188,247.24000549316406)" opacity="1" style="display: block;"><g opacity="1" transform="matrix(1,0,0,1,0,0)"><path fill="rgb(83,24,46)" fill-opacity="1" d=" M-0.40799999237060547,10.758000373840332 C-12.652000427246094,10.758000373840332 -22.447999954223633,7.571000099182129 -29.795000076293945,-0.39800000190734863 C-37.141998291015625,-7.570000171661377 -41.222999572753906,-17.132999420166016 -41.222999572753906,-29.086000442504883 C-41.222999572753906,-41.03900146484375 -37.141998291015625,-49.805999755859375 -29.795000076293945,-57.775001525878906 C-21.631999969482422,-64.9469985961914 -11.836000442504883,-68.93099975585938 -0.40799999237060547,-68.93099975585938 C11.836000442504883,-68.93099975585938 21.631999969482422,-65.74400329589844 28.979000091552734,-57.775001525878906 C36.32600021362305,-49.805999755859375 40.40700149536133,-40.242000579833984 40.40700149536133,-29.086000442504883 C40.40700149536133,-17.132999420166016 36.32600021362305,-8.366999626159668 28.979000091552734,-0.39800000190734863 C20.81599998474121,6.77400016784668 11.020000457763672,10.758000373840332 -0.40799999237060547,10.758000373840332z M65.71199798583984,-88.85299682617188 C50.20199966430664,-104.79100036621094 31.427000045776367,-112.76000213623047 8.571000099182129,-112.76000213623047 C-11.020000457763672,-112.76000213623047 -28.16200065612793,-105.58799743652344 -41.222999572753906,-91.24400329589844 C-41.222999572753906,-91.24400329589844 -41.222999572753906,-109.5719985961914 -41.222999572753906,-109.5719985961914 C-41.222999572753906,-109.5719985961914 -88.56800079345703,-109.5719985961914 -88.56800079345703,-109.5719985961914 C-88.56800079345703,-109.5719985961914 -88.56800079345703,112.76000213623047 -88.56800079345703,112.76000213623047 C-88.56800079345703,112.76000213623047 -41.222999572753906,112.76000213623047 -41.222999572753906,112.76000213623047 C-41.222999572753906,112.76000213623047 -41.222999572753906,34.665000915527344 -41.222999572753906,34.665000915527344 C-28.16200065612793,49.00899887084961 -11.836000442504883,56.180999755859375 8.571000099182129,56.180999755859375 C31.427000045776367,56.180999755859375 50.20199966430664,48.21200180053711 65.71199798583984,32.27399826049805 C81.22200012207031,15.538999557495117 88.56800079345703,-4.382999897003174 88.56800079345703,-28.290000915527344 C88.56800079345703,-52.99399948120117 81.22200012207031,-72.91500091552734 65.71199798583984,-88.85299682617188z"></path></g></g><g clip-path="url(#__lottie_element_163)" transform="matrix(1,0,0,1,-5.5,32)" opacity="1" style="display: block;"><g transform="matrix(1,0,0,1,189.01100158691406,207.947998046875)" opacity="1" style="display: block;"><g opacity="1" transform="matrix(1,0,0,1,0,0)"><path fill="rgb(83,24,46)" fill-opacity="1" d=" M6.335999965667725,14.380000114440918 C18.579999923706055,12.78600025177002 27.559999465942383,8.005000114440918 34.09000015258789,-0.7609999775886536 C40.619998931884766,-9.527000427246094 43.069000244140625,-19.089000701904297 41.43600082397461,-31.04199981689453 C39.803001403808594,-42.198001861572266 34.90599822998047,-51.762001037597656 25.927000045776367,-58.137001037597656 C17.763999938964844,-65.30899810791016 7.1519999504089355,-67.69999694824219 -4.276000022888184,-66.10600280761719 C-16.520000457763672,-64.51200103759766 -25.5,-59.73099899291992 -32.029998779296875,-50.96500015258789 C-38.560001373291016,-42.19900131225586 -41.0099983215332,-31.839000701904297 -39.37699890136719,-20.683000564575195 C-37.74399948120117,-9.527000427246094 -32.84600067138672,0.035999998450279236 -23.867000579833984,6.410999774932861 C-15.704000473022461,13.583000183105469 -5.0920000076293945,15.973999977111816 6.335999965667725,14.380000114440918z M-1.0110000371932983,-111.52799987792969 C21.844999313354492,-114.71600341796875 42.25299835205078,-109.13800048828125 59.39500045776367,-94.79399871826172 C77.35399627685547,-80.44999694824219 87.14900207519531,-61.32400131225586 89.5979995727539,-35.82400131225586 C92.86299896240234,-11.916999816894531 87.96600341796875,8.802000045776367 74.90499877929688,27.1299991607666 C61.84400177001953,44.6619987487793 43.8849983215332,55.020999908447266 21.02899932861328,58.20899963378906 C0.621999979019165,60.599998474121094 -16.520000457763672,55.020999908447266 -32.029998779296875,42.270999908447266 C-32.029998779296875,42.270999908447266 -23.867000579833984,106.02300262451172 -23.867000579833984,106.02300262451172 C-23.867000579833984,106.02300262451172 -71.21299743652344,112.39800262451172 -71.21299743652344,112.39800262451172 C-71.21299743652344,112.39800262451172 -89.98699951171875,-31.839000701904297 -89.98699951171875,-31.839000701904297 C-94.88500213623047,-68.49600219726562 -68.76399993896484,-101.96600341796875 -31.214000701904297,-107.54399871826172 C-18.152999877929688,-109.13800048828125 -6.724999904632568,-110.73100280761719 -1.0110000371932983,-111.52799987792969z"></path></g></g><g transform="matrix(0.9719240665435791,-0.23529477417469025,0.23529477417469025,0.9719240665435791,91.00988006591797,108.00030517578125)" opacity="1" style="display: block;"><g opacity="1" transform="matrix(1,0,0,1,0,0)"><path fill="rgb(83,24,46)" fill-opacity="1" d=" M-59.645999908447266,15.458999633789062 C-84.13500213623047,-26.775999069213867 2.3919999599456787,-67.41699981689453 39.94200134277344,-31.55699920654297 C53.00299835205078,-19.604000091552734 76.6760025024414,55.30400085449219 55.45199966430664,32.99100112915039 C22.799999237060547,-1.274999976158142 37.49300003051758,-26.775999069213867 -13.116999626159668,39.36600112915039 C-27.809999465942383,58.49100112915039 -53.11600112915039,26.614999771118164 -59.645999908447266,15.458999633789062z"></path></g></g><g transform="matrix(0.9613701105117798,0.2752588987350464,-0.2752588987350464,0.9613701105117798,265.7228698730469,92.97615814208984)" opacity="1" style="display: block;"><g opacity="1" transform="matrix(1,0,0,1,0,0)"><path fill="rgb(83,24,46)" fill-opacity="1" d=" M58.56800079345703,4.876999855041504 C75.70999908447266,-40.54600143432617 -16.5310001373291,-66.84300231933594 -47.54999923706055,-25.405000686645508 C-58.1619987487793,-11.060999870300293 -68.77400207519531,67.03399658203125 -51.63199996948242,40.73699951171875 C-25.510000228881836,1.6890000104904175 -44.28499984741211,-20.62299919128418 16.937000274658203,35.95600128173828 C34.07899856567383,52.691001892089844 53.66999816894531,16.829999923706055 58.56800079345703,4.876999855041504z"></path></g></g></g></g></svg>